<svg width="1049" height="299" viewBox="0 0 1049 299" fill="none" xmlns="http://www.w3.org/2000/svg">
<path d="M119.737 77.4125C131.401 77.4125 140.402 97.2463 145.945 110.507C149.574 119.186 157.135 133.45 166.007 142.018C177.249 115.447 185.281 51.2999 196.382 51.2998C210.686 51.2999 236.584 95.5015 236.584 148.824C236.584 202.338 210.705 247.05 196.383 247.05C185.306 247.05 177.279 183.082 166.081 156.263C157.161 164.818 149.551 179.165 145.908 187.881C140.364 201.141 131.363 220.975 119.699 220.975C108.034 220.975 99.0331 201.141 93.4896 187.881C89.4057 178.112 80.3387 161.268 70.029 153.434C64.1114 158.926 59.0402 168.464 56.6366 174.213C53.0496 182.794 47.2256 195.627 39.6778 195.627C32.1301 195.627 26.306 182.794 22.7191 174.213C19.2525 165.921 10.0945 149.722 0.984477 149.17C0.668388 149.189 0.352197 149.189 0.0361328 149.17C0.35203 149.15 0.668224 149.15 0.984477 149.17C10.0848 148.618 19.1 132.448 22.5665 124.155C26.1535 115.575 31.9775 102.742 39.5252 102.742C47.073 102.742 52.897 115.575 56.484 124.155C58.9007 129.936 64.0144 139.547 69.9736 145.024C80.3219 137.222 89.4314 120.305 93.5276 110.507C99.071 97.2463 108.072 77.4125 119.737 77.4125Z" fill="white"/>
<path d="M382.169 218H328.385V66.8H382.169C429.689 66.8 456.473 96.824 456.473 142.4C456.473 189.704 428.393 218 382.169 218ZM355.385 88.616V196.184H380.009C397.721 196.184 410.465 191 417.809 181.28C424.937 171.56 427.745 159.032 427.745 142.4C427.745 125.552 425.585 114.536 418.241 103.736C410.897 92.936 397.073 88.616 380.009 88.616H355.385ZM572.26 125.336C580.9 136.136 585.22 152.552 584.572 171.128H504.22C504.652 191.216 513.724 201.368 531.652 201.368C547.42 201.368 555.628 194.672 558.004 181.496L582.844 183.44C577.228 208.28 559.516 220.592 531.868 220.592C515.02 220.592 502.06 215.192 492.772 205.688C482.836 195.536 478.3 181.28 478.3 163.784C478.3 147.152 483.052 132.896 492.772 122.528C502.276 112.592 515.236 107.408 531.652 107.408C548.716 107.408 563.188 113.888 572.26 125.336ZM531.652 126.632C521.5 126.632 514.156 130.088 509.836 136.136C506.38 140.888 504.868 146.72 504.436 151.904H558.436C558.004 145.856 556.06 139.592 552.388 135.056C547.636 129.224 541.156 126.632 531.652 126.632ZM659.663 220.592C625.103 220.592 605.015 199.424 605.015 164C605.015 130.736 625.103 107.408 659.663 107.408C688.391 107.408 703.727 123.608 708.047 145.64L684.071 149.96C681.263 137.864 676.079 126.848 659.663 126.848C649.727 126.848 643.247 129.872 639.143 135.272C634.391 141.752 632.879 151.688 632.879 164C632.879 187.328 638.279 201.152 659.663 201.152C673.271 201.152 680.615 194.456 684.071 181.064L708.695 183.656C705.023 205.472 686.663 220.592 659.663 220.592ZM821.048 125.336C829.688 136.136 834.008 152.552 833.36 171.128H753.008C753.44 191.216 762.512 201.368 780.44 201.368C796.208 201.368 804.416 194.672 806.792 181.496L831.632 183.44C826.016 208.28 808.304 220.592 780.656 220.592C763.808 220.592 750.848 215.192 741.56 205.688C731.624 195.536 727.088 181.28 727.088 163.784C727.088 147.152 731.84 132.896 741.56 122.528C751.064 112.592 764.024 107.408 780.44 107.408C797.504 107.408 811.976 113.888 821.048 125.336ZM780.44 126.632C770.288 126.632 762.944 130.088 758.624 136.136C755.168 140.888 753.656 146.72 753.224 151.904H807.224C806.792 145.856 804.848 139.592 801.176 135.056C796.424 129.224 789.944 126.632 780.44 126.632ZM947.979 118.424C956.403 127.064 957.051 139.808 957.051 152.768V218H931.131V154.712C931.131 144.776 930.699 137.864 925.083 132.68C920.331 127.928 915.147 127.496 908.883 127.496C899.379 127.496 885.339 132.68 885.339 158.816V218H859.635V110H885.123V126.416C890.523 113.24 902.187 107.408 917.739 107.408C931.779 107.408 940.635 110.864 947.979 118.424ZM1027.36 219.08C1006.84 219.08 994.743 211.088 994.743 190.784V130.52H979.191V110H994.743V79.976H1020.01V110H1042.05V130.52H1020.01V188.624C1020.01 195.104 1023.47 196.616 1031.25 196.616C1033.84 196.616 1037.51 196.184 1041.18 195.536L1041.61 217.784C1037.51 218.648 1032.11 219.08 1027.36 219.08Z" fill="white"/>
</svg>
