<svg width="1049" height="299" viewBox="0 0 1049 299" fill="none" xmlns="http://www.w3.org/2000/svg">
<path d="M119.7 77.4125C131.365 77.4125 140.366 97.2463 145.909 110.507C149.538 119.186 157.099 133.45 165.971 142.018C177.212 115.447 185.245 51.2999 196.345 51.2998C210.65 51.2999 236.548 95.5015 236.548 148.824C236.548 202.338 210.669 247.05 196.347 247.05C185.269 247.05 177.243 183.082 166.045 156.263C157.125 164.818 149.515 179.165 145.871 187.881C140.328 201.141 131.327 220.975 119.662 220.975C107.998 220.975 98.9969 201.141 93.4535 187.881C89.3696 178.112 80.3026 161.268 69.9929 153.434C64.0753 158.926 59.004 168.464 56.6004 174.213C53.0135 182.794 47.1894 195.627 39.6417 195.627C32.094 195.627 26.2699 182.794 22.683 174.213C19.2164 165.921 10.0584 149.722 0.948344 149.17C0.632256 149.189 0.316065 149.189 0 149.17C0.315897 149.15 0.632091 149.15 0.948344 149.17C10.0487 148.618 19.0639 132.448 22.5304 124.155C26.1173 115.575 31.9414 102.742 39.4891 102.742C47.0368 102.742 52.8609 115.575 56.4478 124.155C58.8646 129.936 63.9783 139.547 69.9375 145.024C80.2858 137.222 89.3952 120.305 93.4915 110.507C99.0349 97.2463 108.036 77.4125 119.7 77.4125Z" fill="black"/>
<path d="M382.132 218H328.348V66.8H382.132C429.652 66.8 456.436 96.824 456.436 142.4C456.436 189.704 428.356 218 382.132 218ZM355.348 88.616V196.184H379.972C397.684 196.184 410.428 191 417.772 181.28C424.9 171.56 427.708 159.032 427.708 142.4C427.708 125.552 425.548 114.536 418.204 103.736C410.86 92.936 397.036 88.616 379.972 88.616H355.348ZM572.224 125.336C580.864 136.136 585.184 152.552 584.536 171.128H504.184C504.616 191.216 513.688 201.368 531.616 201.368C547.384 201.368 555.592 194.672 557.968 181.496L582.808 183.44C577.192 208.28 559.48 220.592 531.832 220.592C514.984 220.592 502.024 215.192 492.736 205.688C482.8 195.536 478.264 181.28 478.264 163.784C478.264 147.152 483.016 132.896 492.736 122.528C502.24 112.592 515.2 107.408 531.616 107.408C548.68 107.408 563.152 113.888 572.224 125.336ZM531.616 126.632C521.464 126.632 514.12 130.088 509.8 136.136C506.344 140.888 504.832 146.72 504.4 151.904H558.4C557.968 145.856 556.024 139.592 552.352 135.056C547.6 129.224 541.12 126.632 531.616 126.632ZM659.627 220.592C625.067 220.592 604.979 199.424 604.979 164C604.979 130.736 625.067 107.408 659.627 107.408C688.355 107.408 703.691 123.608 708.011 145.64L684.035 149.96C681.227 137.864 676.043 126.848 659.627 126.848C649.691 126.848 643.211 129.872 639.107 135.272C634.355 141.752 632.843 151.688 632.843 164C632.843 187.328 638.243 201.152 659.627 201.152C673.235 201.152 680.579 194.456 684.035 181.064L708.659 183.656C704.987 205.472 686.627 220.592 659.627 220.592ZM821.012 125.336C829.652 136.136 833.972 152.552 833.324 171.128H752.972C753.404 191.216 762.476 201.368 780.404 201.368C796.172 201.368 804.38 194.672 806.756 181.496L831.596 183.44C825.98 208.28 808.268 220.592 780.62 220.592C763.772 220.592 750.812 215.192 741.524 205.688C731.588 195.536 727.052 181.28 727.052 163.784C727.052 147.152 731.804 132.896 741.524 122.528C751.028 112.592 763.988 107.408 780.404 107.408C797.468 107.408 811.94 113.888 821.012 125.336ZM780.404 126.632C770.252 126.632 762.908 130.088 758.588 136.136C755.132 140.888 753.62 146.72 753.188 151.904H807.188C806.756 145.856 804.812 139.592 801.14 135.056C796.388 129.224 789.908 126.632 780.404 126.632ZM947.943 118.424C956.367 127.064 957.015 139.808 957.015 152.768V218H931.095V154.712C931.095 144.776 930.663 137.864 925.047 132.68C920.295 127.928 915.111 127.496 908.847 127.496C899.343 127.496 885.303 132.68 885.303 158.816V218H859.599V110H885.087V126.416C890.487 113.24 902.151 107.408 917.703 107.408C931.743 107.408 940.599 110.864 947.943 118.424ZM1027.32 219.08C1006.8 219.08 994.707 211.088 994.707 190.784V130.52H979.155V110H994.707V79.976H1019.98V110H1042.01V130.52H1019.98V188.624C1019.98 195.104 1023.43 196.616 1031.21 196.616C1033.8 196.616 1037.47 196.184 1041.15 195.536L1041.58 217.784C1037.47 218.648 1032.07 219.08 1027.32 219.08Z" fill="black"/>
</svg>
